<?xml version="1.0" encoding="UTF-8"?>
    <svg class="loading-spinner" xmlns="http://www.w3.org/2000/svg" width="63" height="53" viewBox="0 0 63 53">
      <g fill="none">
        <path d="M48.601562,52.636719 L44.980469,52.636719 L44.980469,51.144531 L48.601562,51.144531 C55.394531,51.144531 56.539062,49.386719 56.539062,45.441406 L56.539062,33.417969 C56.539062,30.554688 56.820312,28.050781 59.8125,26.777344 C56.820312,25.507812 56.539062,23.003906 56.539062,20.140625 L56.539062,8.117188 C56.539062,4.171875 55.394531,2.414062 48.601562,2.414062 L44.980469,2.414062 L44.980469,0.921875 L48.601562,0.921875 C55.558594,0.921875 58.027344,2.804688 58.027344,8.117188 L58.027344,20.140625 C58.027344,23.566406 58.441406,25.25 62.21875,25.917969 L62.835938,26.027344 L62.835938,27.53125 L62.21875,27.640625 C58.441406,28.308594 58.027344,29.992188 58.027344,33.417969 L58.027344,45.441406 C58.027344,50.753906 55.558594,52.636719 48.601562,52.636719" id="Shape" fill="#000000" sketch:type="MSShapeGroup"></path>
        <path d="M18.730469,52.636719 L15.109375,52.636719 C8.152344,52.636719 5.683594,50.753906 5.683594,45.441406 L5.683594,33.417969 C5.683594,29.992188 5.269531,28.308594 1.488281,27.640625 L0.875,27.53125 L0.875,26.027344 L1.488281,25.917969 C5.269531,25.25 5.683594,23.5625 5.683594,20.140625 L5.683594,8.117188 C5.683594,2.804688 8.152344,0.921875 15.109375,0.921875 L18.730469,0.921875 L18.730469,2.414062 L15.109375,2.414062 C8.320312,2.414062 7.171875,4.171875 7.171875,8.117188 L7.171875,20.140625 C7.171875,23.003906 6.890625,25.507812 3.898438,26.777344 C6.890625,28.050781 7.171875,30.554688 7.171875,33.417969 L7.171875,45.441406 C7.171875,49.386719 8.320312,51.144531 15.109375,51.144531 L18.730469,51.144531 L18.730469,52.636719 Z" id="Shape" fill="#000000" sketch:type="MSShapeGroup"></path>
      </g>
    </svg>