<?xml version="1.0" encoding="UTF-8"?>
  <svg id="r" xmlns="http://www.w3.org/2000/svg" width="63" height="53" viewBox="0 0 63 53">
      <g id="Page-1" stroke="none" stroke-width="1" fill="none" fill-rule="evenodd" sketch:type="MSPage">
          <path d="M24.449219,26.511719 L32.839844,26.511719 C35.160156,26.511719 36.921875,25.988281 38.125,24.945312 C39.332031,23.902344 39.933594,22.394531 39.933594,20.425781 C39.933594,18.457031 39.332031,16.957031 38.125,15.929688 C36.921875,14.898438 35.160156,14.386719 32.839844,14.386719 L24.449219,14.386719 L24.449219,26.511719 Z M32.839844,28.882812 L24.449219,28.882812 L24.449219,41.542969 L21.90625,41.542969 L21.90625,12.015625 L32.882812,12.015625 C35.828125,12.015625 38.1875,12.765625 39.957031,14.273438 C41.726562,15.78125 42.613281,17.832031 42.613281,20.425781 C42.613281,22.574219 42,24.363281 40.78125,25.792969 C39.5625,27.226562 37.882812,28.152344 35.738281,28.570312 L41.988281,41.542969 L38.996094,41.542969 L32.839844,28.882812 Z" id="Shape" fill="#000000" sketch:type="MSShapeGroup"></path>
      </g>
  </svg>